<svg width="36" height="36" viewBox="0 0 36 36" fill="none" xmlns="http://www.w3.org/2000/svg">
<path d="M10.7532 9.00037C7.32558 9.00037 4.54248 11.7834 4.54248 15.2404C4.54248 18.4922 7.03273 21.1288 10.1966 21.4218C9.55206 22.5935 8.38028 23.8533 6.38806 25.0545C5.83139 25.3768 5.47995 25.9626 5.47995 26.5779C5.47995 27.8376 6.76901 28.7165 7.94074 28.1893C11.3393 26.6656 16.9931 22.9453 16.9931 15.2405C16.9931 11.7835 14.2101 9.00052 10.7531 9.00052L10.7532 9.00037Z" fill="#158FFF"/>
<path d="M26.1629 9.00037C22.7058 9.00037 19.9229 11.7834 19.9229 15.2404C19.9229 18.4922 22.4131 21.1288 25.5769 21.4218C24.9324 22.5935 23.7607 23.8533 21.7684 25.0545C21.2118 25.3768 20.8603 25.9626 20.8603 26.5779C20.8603 27.8376 22.1494 28.7165 23.3211 28.1893C26.69 26.6658 32.3442 22.9746 32.3442 15.2405C32.3736 11.7833 29.5906 9 26.1628 9L26.1629 9.00037Z" fill="#158FFF"/>
</svg>
